<svg width="619" height="976" viewBox="0 0 619 976" fill="none" xmlns="http://www.w3.org/2000/svg">
<rect width="619" height="976" fill="white"/>
<rect width="619" height="976" fill="url(#paint0_radial_10_167)"/>
<mask id="mask0_10_167" style="mask-type:luminance" maskUnits="userSpaceOnUse" x="3" y="0" width="613" height="976">
<path d="M615.28 0H3V976H615.28V0Z" fill="white"/>
</mask>
<g mask="url(#mask0_10_167)">
<g style="mix-blend-mode:hard-light" opacity="0.5">
<path d="M335.412 1288.21C352.142 1287.54 353.924 907.47 339.392 439.296C324.861 -28.8772 299.519 -407.863 282.789 -407.193C266.06 -406.522 264.278 -26.4491 278.81 441.724C293.341 909.898 318.683 1288.88 335.412 1288.21Z" fill="url(#paint1_radial_10_167)"/>
<path d="M321.17 438.069C392.35 899.502 444.67 1274.63 438.03 1275.96C431.39 1277.28 368.3 904.297 297.12 442.865C225.94 -18.5678 173.62 -393.707 180.26 -395.025C186.9 -396.343 249.99 -23.3631 321.17 438.069Z" fill="url(#paint2_radial_10_167)"/>
<path d="M568.334 1235.95C584.032 1229.35 480.702 867.861 337.54 428.55C194.378 -10.7606 65.5965 -361.538 49.8985 -354.932C34.2005 -348.326 137.531 13.1605 280.693 452.472C423.855 891.783 552.636 1242.56 568.334 1235.95Z" fill="url(#paint3_radial_10_167)"/>
<path d="M747.896 1126.69C761.439 1115.51 575.979 799.211 333.659 420.215C91.3397 41.2189 -116.078 -256.954 -129.62 -245.773C-143.163 -234.592 42.2971 81.7083 284.617 460.704C526.936 839.7 734.353 1137.87 747.896 1126.69Z" fill="url(#paint4_radial_10_167)"/>
<path d="M854.527 1019.56C861.246 1011.39 622.513 745.475 321.301 425.624C20.0886 105.773 -229.539 -146.893 -236.259 -138.722C-242.978 -130.551 -4.24512 135.364 296.967 455.214C598.179 775.065 847.807 1027.73 854.527 1019.56Z" fill="url(#paint5_radial_10_167)"/>
<path d="M955.594 864.582C960.515 854.897 675.078 657.162 318.051 422.93C-38.9752 188.698 -332.391 6.66637 -337.312 16.3516C-342.233 26.0368 -56.7952 223.771 300.231 458.003C657.257 692.236 950.674 874.267 955.594 864.582Z" fill="url(#paint6_radial_10_167)"/>
<path d="M309.37 460.752C721.582 453.721 1055.63 438.956 1055.48 427.774C1055.33 416.592 721.047 413.227 308.835 420.258C-103.377 427.289 -437.421 442.054 -437.273 453.236C-437.126 464.419 -102.842 467.784 309.37 460.752Z" fill="url(#paint7_radial_10_167)"/>
<path d="M315.46 459.436C700.696 292.623 1010.15 148.922 1006.65 138.471C1003.14 128.021 688.005 254.778 302.769 421.592C-82.4675 588.405 -391.922 732.106 -388.418 742.557C-384.913 753.007 -69.7766 626.25 315.46 459.436Z" fill="url(#paint8_radial_10_167)"/>
<path d="M320.792 455.833C632.587 149.357 880.128 -105.947 873.689 -114.405C867.25 -122.863 609.271 118.727 297.475 425.203C-14.32 731.679 -261.861 986.983 -255.422 995.441C-248.983 1003.9 8.99621 762.309 320.792 455.833Z" fill="url(#paint9_radial_10_167)"/>
<path d="M322.612 453.634C592.317 99.3291 804.922 -193.823 797.478 -201.139C790.035 -208.455 565.362 72.8341 295.657 427.139C25.9525 781.443 -186.652 1074.6 -179.209 1081.91C-171.766 1089.23 52.9074 807.938 322.612 453.634Z" fill="url(#paint10_radial_10_167)"/>
<path d="M325.178 449.231C504.411 27.3571 642.524 -318.581 633.661 -323.443C624.798 -328.305 472.316 9.74971 293.083 431.624C113.849 853.498 -24.2634 1199.44 -15.4005 1204.3C-6.53757 1209.16 145.945 871.106 325.178 449.231Z" fill="url(#paint11_radial_10_167)"/>
<path d="M996.764 770.519C1003.28 752.997 700.696 591.016 320.93 408.725C-58.8366 226.434 -371.979 92.8632 -378.493 110.386C-385.006 127.909 -82.4253 289.89 297.341 472.181C677.108 654.471 990.25 788.042 996.764 770.519Z" fill="url(#paint12_radial_10_167)"/>
<path d="M1052.59 515.95C1054.08 497.003 722.412 447.819 311.792 406.094C-98.8276 364.369 -432.909 345.903 -434.4 364.849C-435.891 383.795 -104.227 432.98 306.393 474.705C717.013 516.43 1051.1 534.896 1052.59 515.95Z" fill="url(#paint13_radial_10_167)"/>
<path d="M315.545 474.136C718.462 374.978 1042.22 279.524 1038.68 260.933C1035.13 242.342 705.631 307.654 302.714 406.812C-100.204 505.97 -423.961 601.424 -420.417 620.016C-416.874 638.606 -87.3726 573.294 315.545 474.136Z" fill="url(#paint14_radial_10_167)"/>
<path d="M326.954 468.324C660.478 192.967 922.876 -42.7286 913.037 -58.1177C903.197 -73.5068 624.846 137.238 291.322 412.595C-42.202 687.952 -304.6 923.647 -294.761 939.037C-284.922 954.426 -6.57041 743.68 326.954 468.324Z" fill="url(#paint15_radial_10_167)"/>
<path d="M333.655 460.707C575.974 81.7111 761.435 -234.59 747.892 -245.77C734.349 -256.951 526.932 41.2217 284.612 420.218C42.293 799.213 -143.167 1115.51 -129.624 1126.69C-116.082 1137.88 91.3356 839.703 333.655 460.707Z" fill="url(#paint16_radial_10_167)"/>
<path d="M337.966 451.103C465.361 5.56631 555.729 -360.377 539.808 -366.255C523.888 -372.133 407.708 -15.7202 280.313 429.816C152.918 875.352 62.5504 1241.3 78.4708 1247.17C94.3913 1253.05 210.571 896.639 337.966 451.103Z" fill="url(#paint17_radial_10_167)"/>
<path d="M339.15 445.255C396.525 -18.6504 429.599 -396.866 413.022 -399.513C396.445 -402.161 336.495 -28.2373 279.12 435.668C221.744 899.574 188.671 1277.79 205.247 1280.44C221.824 1283.08 281.774 909.161 339.15 445.255Z" fill="url(#paint18_radial_10_167)"/>
</g>
</g>
<defs>
<radialGradient id="paint0_radial_10_167" cx="0" cy="0" r="1" gradientUnits="userSpaceOnUse" gradientTransform="translate(307.872 467.827) scale(457.082 642.201)">
<stop stop-color="#FFDC00"/>
<stop offset="1" stop-color="#FF9600"/>
</radialGradient>
<radialGradient id="paint1_radial_10_167" cx="0" cy="0" r="1" gradientUnits="userSpaceOnUse" gradientTransform="translate(259.477 442.53) rotate(-2.23833) scale(29.8583 847.936)">
<stop stop-color="white"/>
<stop offset="0.07" stop-color="#FFFFC7"/>
<stop offset="0.14" stop-color="#FFFF99"/>
<stop offset="0.2" stop-color="#FFFF7D"/>
<stop offset="0.23" stop-color="#FFFF73"/>
<stop offset="0.29" stop-color="#FFFF66" stop-opacity="0.89"/>
<stop offset="0.49" stop-color="#FFFF42" stop-opacity="0.58"/>
<stop offset="0.67" stop-color="#FFFF26" stop-opacity="0.33"/>
<stop offset="0.82" stop-color="#FFFF11" stop-opacity="0.15"/>
<stop offset="0.93" stop-color="#FFFF04" stop-opacity="0.04"/>
<stop offset="1" stop-color="#FFFF00" stop-opacity="0"/>
</radialGradient>
<radialGradient id="paint2_radial_10_167" cx="0" cy="0" r="1" gradientUnits="userSpaceOnUse" gradientTransform="translate(1057.61 292.158) rotate(-11.1837) scale(14.9982 844.918)">
<stop stop-color="white"/>
<stop offset="0.07" stop-color="#FFFFC7"/>
<stop offset="0.14" stop-color="#FFFF99"/>
<stop offset="0.2" stop-color="#FFFF7D"/>
<stop offset="0.23" stop-color="#FFFF73"/>
<stop offset="0.29" stop-color="#FFFF66" stop-opacity="0.89"/>
<stop offset="0.49" stop-color="#FFFF42" stop-opacity="0.58"/>
<stop offset="0.67" stop-color="#FFFF26" stop-opacity="0.33"/>
<stop offset="0.82" stop-color="#FFFF11" stop-opacity="0.15"/>
<stop offset="0.93" stop-color="#FFFF04" stop-opacity="0.04"/>
<stop offset="1" stop-color="#FFFF00" stop-opacity="0"/>
</radialGradient>
<radialGradient id="paint3_radial_10_167" cx="0" cy="0" r="1" gradientUnits="userSpaceOnUse" gradientTransform="translate(239.087 469.42) rotate(-22.8101) scale(30.3717 833.561)">
<stop stop-color="white"/>
<stop offset="0.07" stop-color="#FFFFC7"/>
<stop offset="0.14" stop-color="#FFFF99"/>
<stop offset="0.2" stop-color="#FFFF7D"/>
<stop offset="0.23" stop-color="#FFFF73"/>
<stop offset="0.29" stop-color="#FFFF66" stop-opacity="0.89"/>
<stop offset="0.49" stop-color="#FFFF42" stop-opacity="0.58"/>
<stop offset="0.67" stop-color="#FFFF26" stop-opacity="0.33"/>
<stop offset="0.82" stop-color="#FFFF11" stop-opacity="0.15"/>
<stop offset="0.93" stop-color="#FFFF04" stop-opacity="0.04"/>
<stop offset="1" stop-color="#FFFF00" stop-opacity="0"/>
</radialGradient>
<radialGradient id="paint4_radial_10_167" cx="0" cy="0" r="1" gradientUnits="userSpaceOnUse" gradientTransform="translate(230.662 504.729) rotate(-39.543) scale(31.3041 807.994)">
<stop stop-color="white"/>
<stop offset="0.07" stop-color="#FFFFC7"/>
<stop offset="0.14" stop-color="#FFFF99"/>
<stop offset="0.2" stop-color="#FFFF7D"/>
<stop offset="0.23" stop-color="#FFFF73"/>
<stop offset="0.29" stop-color="#FFFF66" stop-opacity="0.89"/>
<stop offset="0.49" stop-color="#FFFF42" stop-opacity="0.58"/>
<stop offset="0.67" stop-color="#FFFF26" stop-opacity="0.33"/>
<stop offset="0.82" stop-color="#FFFF11" stop-opacity="0.15"/>
<stop offset="0.93" stop-color="#FFFF04" stop-opacity="0.04"/>
<stop offset="1" stop-color="#FFFF00" stop-opacity="0"/>
</radialGradient>
<radialGradient id="paint5_radial_10_167" cx="0" cy="0" r="1" gradientUnits="userSpaceOnUse" gradientTransform="translate(-365.142 1258.67) rotate(-50.4987) scale(16.0549 789.685)">
<stop stop-color="white"/>
<stop offset="0.07" stop-color="#FFFFC7"/>
<stop offset="0.14" stop-color="#FFFF99"/>
<stop offset="0.2" stop-color="#FFFF7D"/>
<stop offset="0.23" stop-color="#FFFF73"/>
<stop offset="0.29" stop-color="#FFFF66" stop-opacity="0.89"/>
<stop offset="0.49" stop-color="#FFFF42" stop-opacity="0.58"/>
<stop offset="0.67" stop-color="#FFFF26" stop-opacity="0.33"/>
<stop offset="0.82" stop-color="#FFFF11" stop-opacity="0.15"/>
<stop offset="0.93" stop-color="#FFFF04" stop-opacity="0.04"/>
<stop offset="1" stop-color="#FFFF00" stop-opacity="0"/>
</radialGradient>
<radialGradient id="paint6_radial_10_167" cx="0" cy="0" r="1" gradientUnits="userSpaceOnUse" gradientTransform="translate(-209.814 1465.75) rotate(-63.1683) scale(16.4806 768.196)">
<stop stop-color="white"/>
<stop offset="0.07" stop-color="#FFFFC7"/>
<stop offset="0.14" stop-color="#FFFF99"/>
<stop offset="0.2" stop-color="#FFFF7D"/>
<stop offset="0.23" stop-color="#FFFF73"/>
<stop offset="0.29" stop-color="#FFFF66" stop-opacity="0.89"/>
<stop offset="0.49" stop-color="#FFFF42" stop-opacity="0.58"/>
<stop offset="0.67" stop-color="#FFFF26" stop-opacity="0.33"/>
<stop offset="0.82" stop-color="#FFFF11" stop-opacity="0.15"/>
<stop offset="0.93" stop-color="#FFFF04" stop-opacity="0.04"/>
<stop offset="1" stop-color="#FFFF00" stop-opacity="0"/>
</radialGradient>
<radialGradient id="paint7_radial_10_167" cx="0" cy="0" r="1" gradientUnits="userSpaceOnUse" gradientTransform="translate(325.146 1565.62) rotate(-90.8448) scale(16.9523 745.964)">
<stop stop-color="white"/>
<stop offset="0.07" stop-color="#FFFFC7"/>
<stop offset="0.14" stop-color="#FFFF99"/>
<stop offset="0.2" stop-color="#FFFF7D"/>
<stop offset="0.23" stop-color="#FFFF73"/>
<stop offset="0.29" stop-color="#FFFF66" stop-opacity="0.89"/>
<stop offset="0.49" stop-color="#FFFF42" stop-opacity="0.58"/>
<stop offset="0.67" stop-color="#FFFF26" stop-opacity="0.33"/>
<stop offset="0.82" stop-color="#FFFF11" stop-opacity="0.15"/>
<stop offset="0.93" stop-color="#FFFF04" stop-opacity="0.04"/>
<stop offset="1" stop-color="#FFFF00" stop-opacity="0"/>
</radialGradient>
<radialGradient id="paint8_radial_10_167" cx="0" cy="0" r="1" gradientUnits="userSpaceOnUse" gradientTransform="translate(602.092 1312.07) rotate(-108.539) scale(16.7225 757.471)">
<stop stop-color="white"/>
<stop offset="0.07" stop-color="#FFFFC7"/>
<stop offset="0.14" stop-color="#FFFF99"/>
<stop offset="0.2" stop-color="#FFFF7D"/>
<stop offset="0.23" stop-color="#FFFF73"/>
<stop offset="0.29" stop-color="#FFFF66" stop-opacity="0.89"/>
<stop offset="0.49" stop-color="#FFFF42" stop-opacity="0.58"/>
<stop offset="0.67" stop-color="#FFFF26" stop-opacity="0.33"/>
<stop offset="0.82" stop-color="#FFFF11" stop-opacity="0.15"/>
<stop offset="0.93" stop-color="#FFFF04" stop-opacity="0.04"/>
<stop offset="1" stop-color="#FFFF00" stop-opacity="0"/>
</radialGradient>
<radialGradient id="paint9_radial_10_167" cx="0" cy="0" r="1" gradientUnits="userSpaceOnUse" gradientTransform="translate(689.456 942.585) rotate(-127.172) scale(16.1201 784.723)">
<stop stop-color="white"/>
<stop offset="0.07" stop-color="#FFFFC7"/>
<stop offset="0.14" stop-color="#FFFF99"/>
<stop offset="0.2" stop-color="#FFFF7D"/>
<stop offset="0.23" stop-color="#FFFF73"/>
<stop offset="0.29" stop-color="#FFFF66" stop-opacity="0.89"/>
<stop offset="0.49" stop-color="#FFFF42" stop-opacity="0.58"/>
<stop offset="0.67" stop-color="#FFFF26" stop-opacity="0.33"/>
<stop offset="0.82" stop-color="#FFFF11" stop-opacity="0.15"/>
<stop offset="0.93" stop-color="#FFFF04" stop-opacity="0.04"/>
<stop offset="1" stop-color="#FFFF00" stop-opacity="0"/>
</radialGradient>
<radialGradient id="paint10_radial_10_167" cx="0" cy="0" r="1" gradientUnits="userSpaceOnUse" gradientTransform="translate(617.874 743.791) rotate(-135.604) scale(15.82 799.609)">
<stop stop-color="white"/>
<stop offset="0.07" stop-color="#FFFFC7"/>
<stop offset="0.14" stop-color="#FFFF99"/>
<stop offset="0.2" stop-color="#FFFF7D"/>
<stop offset="0.23" stop-color="#FFFF73"/>
<stop offset="0.29" stop-color="#FFFF66" stop-opacity="0.89"/>
<stop offset="0.49" stop-color="#FFFF42" stop-opacity="0.58"/>
<stop offset="0.67" stop-color="#FFFF26" stop-opacity="0.33"/>
<stop offset="0.82" stop-color="#FFFF11" stop-opacity="0.15"/>
<stop offset="0.93" stop-color="#FFFF04" stop-opacity="0.04"/>
<stop offset="1" stop-color="#FFFF00" stop-opacity="0"/>
</radialGradient>
<radialGradient id="paint11_radial_10_167" cx="0" cy="0" r="1" gradientUnits="userSpaceOnUse" gradientTransform="translate(478.143 532.981) rotate(-151.208) scale(15.3319 825.531)">
<stop stop-color="white"/>
<stop offset="0.07" stop-color="#FFFFC7"/>
<stop offset="0.14" stop-color="#FFFF99"/>
<stop offset="0.2" stop-color="#FFFF7D"/>
<stop offset="0.23" stop-color="#FFFF73"/>
<stop offset="0.29" stop-color="#FFFF66" stop-opacity="0.89"/>
<stop offset="0.49" stop-color="#FFFF42" stop-opacity="0.58"/>
<stop offset="0.67" stop-color="#FFFF26" stop-opacity="0.33"/>
<stop offset="0.82" stop-color="#FFFF11" stop-opacity="0.15"/>
<stop offset="0.93" stop-color="#FFFF04" stop-opacity="0.04"/>
<stop offset="1" stop-color="#FFFF00" stop-opacity="0"/>
</radialGradient>
<radialGradient id="paint12_radial_10_167" cx="0" cy="0" r="1" gradientUnits="userSpaceOnUse" gradientTransform="translate(269.011 547.777) rotate(-69.6081) scale(33.3488 759.635)">
<stop stop-color="white"/>
<stop offset="0.07" stop-color="#FFFFC7"/>
<stop offset="0.14" stop-color="#FFFF99"/>
<stop offset="0.2" stop-color="#FFFF7D"/>
<stop offset="0.23" stop-color="#FFFF73"/>
<stop offset="0.29" stop-color="#FFFF66" stop-opacity="0.89"/>
<stop offset="0.49" stop-color="#FFFF42" stop-opacity="0.58"/>
<stop offset="0.67" stop-color="#FFFF26" stop-opacity="0.33"/>
<stop offset="0.82" stop-color="#FFFF11" stop-opacity="0.15"/>
<stop offset="0.93" stop-color="#FFFF04" stop-opacity="0.04"/>
<stop offset="1" stop-color="#FFFF00" stop-opacity="0"/>
</radialGradient>
<radialGradient id="paint13_radial_10_167" cx="0" cy="0" r="1" gradientUnits="userSpaceOnUse" gradientTransform="translate(301.478 542.603) rotate(-85.518) scale(33.9209 747.604)">
<stop stop-color="white"/>
<stop offset="0.07" stop-color="#FFFFC7"/>
<stop offset="0.14" stop-color="#FFFF99"/>
<stop offset="0.2" stop-color="#FFFF7D"/>
<stop offset="0.23" stop-color="#FFFF73"/>
<stop offset="0.29" stop-color="#FFFF66" stop-opacity="0.89"/>
<stop offset="0.49" stop-color="#FFFF42" stop-opacity="0.58"/>
<stop offset="0.67" stop-color="#FFFF26" stop-opacity="0.33"/>
<stop offset="0.82" stop-color="#FFFF11" stop-opacity="0.15"/>
<stop offset="0.93" stop-color="#FFFF04" stop-opacity="0.04"/>
<stop offset="1" stop-color="#FFFF00" stop-opacity="0"/>
</radialGradient>
<radialGradient id="paint14_radial_10_167" cx="0" cy="0" r="1" gradientUnits="userSpaceOnUse" gradientTransform="translate(329.095 542.225) rotate(-100.791) scale(33.7537 750.18)">
<stop stop-color="white"/>
<stop offset="0.07" stop-color="#FFFFC7"/>
<stop offset="0.14" stop-color="#FFFF99"/>
<stop offset="0.2" stop-color="#FFFF7D"/>
<stop offset="0.23" stop-color="#FFFF73"/>
<stop offset="0.29" stop-color="#FFFF66" stop-opacity="0.89"/>
<stop offset="0.49" stop-color="#FFFF42" stop-opacity="0.58"/>
<stop offset="0.67" stop-color="#FFFF26" stop-opacity="0.33"/>
<stop offset="0.82" stop-color="#FFFF11" stop-opacity="0.15"/>
<stop offset="0.93" stop-color="#FFFF04" stop-opacity="0.04"/>
<stop offset="1" stop-color="#FFFF00" stop-opacity="0"/>
</radialGradient>
<radialGradient id="paint15_radial_10_167" cx="0" cy="0" r="1" gradientUnits="userSpaceOnUse" gradientTransform="translate(349.885 504.595) rotate(-122.594) scale(32.559 776.854)">
<stop stop-color="white"/>
<stop offset="0.07" stop-color="#FFFFC7"/>
<stop offset="0.14" stop-color="#FFFF99"/>
<stop offset="0.2" stop-color="#FFFF7D"/>
<stop offset="0.23" stop-color="#FFFF73"/>
<stop offset="0.29" stop-color="#FFFF66" stop-opacity="0.89"/>
<stop offset="0.49" stop-color="#FFFF42" stop-opacity="0.58"/>
<stop offset="0.67" stop-color="#FFFF26" stop-opacity="0.33"/>
<stop offset="0.82" stop-color="#FFFF11" stop-opacity="0.15"/>
<stop offset="0.93" stop-color="#FFFF04" stop-opacity="0.04"/>
<stop offset="1" stop-color="#FFFF00" stop-opacity="0"/>
</radialGradient>
<radialGradient id="paint16_radial_10_167" cx="0" cy="0" r="1" gradientUnits="userSpaceOnUse" gradientTransform="translate(342.493 467.681) rotate(-140.457) scale(31.3041 807.994)">
<stop stop-color="white"/>
<stop offset="0.07" stop-color="#FFFFC7"/>
<stop offset="0.14" stop-color="#FFFF99"/>
<stop offset="0.2" stop-color="#FFFF7D"/>
<stop offset="0.23" stop-color="#FFFF73"/>
<stop offset="0.29" stop-color="#FFFF66" stop-opacity="0.89"/>
<stop offset="0.49" stop-color="#FFFF42" stop-opacity="0.58"/>
<stop offset="0.67" stop-color="#FFFF26" stop-opacity="0.33"/>
<stop offset="0.82" stop-color="#FFFF11" stop-opacity="0.15"/>
<stop offset="0.93" stop-color="#FFFF04" stop-opacity="0.04"/>
<stop offset="1" stop-color="#FFFF00" stop-opacity="0"/>
</radialGradient>
<radialGradient id="paint17_radial_10_167" cx="0" cy="0" r="1" gradientUnits="userSpaceOnUse" gradientTransform="translate(305.729 439.774) rotate(-159.801) scale(30.2815 837.118)">
<stop stop-color="white"/>
<stop offset="0.07" stop-color="#FFFFC7"/>
<stop offset="0.14" stop-color="#FFFF99"/>
<stop offset="0.2" stop-color="#FFFF7D"/>
<stop offset="0.23" stop-color="#FFFF73"/>
<stop offset="0.29" stop-color="#FFFF66" stop-opacity="0.89"/>
<stop offset="0.49" stop-color="#FFFF42" stop-opacity="0.58"/>
<stop offset="0.67" stop-color="#FFFF26" stop-opacity="0.33"/>
<stop offset="0.82" stop-color="#FFFF11" stop-opacity="0.15"/>
<stop offset="0.93" stop-color="#FFFF04" stop-opacity="0.04"/>
<stop offset="1" stop-color="#FFFF00" stop-opacity="0"/>
</radialGradient>
<radialGradient id="paint18_radial_10_167" cx="0" cy="0" r="1" gradientUnits="userSpaceOnUse" gradientTransform="translate(317.969 442.365) rotate(-170.847) scale(29.9468 845.885)">
<stop stop-color="white"/>
<stop offset="0.07" stop-color="#FFFFC7"/>
<stop offset="0.14" stop-color="#FFFF99"/>
<stop offset="0.2" stop-color="#FFFF7D"/>
<stop offset="0.23" stop-color="#FFFF73"/>
<stop offset="0.29" stop-color="#FFFF66" stop-opacity="0.89"/>
<stop offset="0.49" stop-color="#FFFF42" stop-opacity="0.58"/>
<stop offset="0.67" stop-color="#FFFF26" stop-opacity="0.33"/>
<stop offset="0.82" stop-color="#FFFF11" stop-opacity="0.15"/>
<stop offset="0.93" stop-color="#FFFF04" stop-opacity="0.04"/>
<stop offset="1" stop-color="#FFFF00" stop-opacity="0"/>
</radialGradient>
</defs>
</svg>
